<svg height="62" viewBox="0 0 75 62" width="75" xmlns="http://www.w3.org/2000/svg"><path d="m96.2862397 142c.1023977-.104402.2284943-.187176.3720172-.239366l8.2415701-2.996935c.519033-.188739 1.092797.079017 1.281536.598051.084008.231022.07998.484893-.011316.713133l-.770047 1.925117h1.779812c.552285 0 1 .447715 1 1s-.447715 1-1 1h-1.779812l.770047 1.925117c.205113.512783-.044303 1.094754-.557086 1.299867-.228241.091296-.482112.095325-.713134.011317l-8.2415701-2.996935c-.1435229-.05219-.2696195-.134964-.3720172-.239366h-32.1064277c-.5522847 0-1-.447715-1-1s.4477153-1 1-1zm-25.15866 27.488772c-2.3754935.913496-4.9137503 1.43766-7.5547051 1.504036-.0395208.004749-.0797506.007192-.1205512.007192h-3.4523234c-2.3041672 0-4.5028991-.270874-6.5758599-.785503l-3.5657956 5.96538c-.2833629.474051-.8973678.628634-1.3714184.345271-.4740505-.283363-.6286334-.897368-.3452706-1.371418l3.2986205-5.518412c-10.6005527-3.573453-17.440276-13.820475-17.440276-26.635318 0-16.001954 10.6649298-28 26-28h2c.0591511 0 .1171026.005136.1734331.014986.2744097-.009965.5499546-.014986.8265669-.014986 12.927055 0 23.5229582 10.965918 24.8581233 25h-2.0095084c-1.3172615-12.965175-11.068234-23-22.8486149-23-12.6745978 0-23 11.616078-23 26s10.3254022 26 23 26c11.7803809 0 21.5313534-10.034825 22.8486149-23h2.0095084c-.968622 10.181303-6.8112298 18.747811-14.8819731 22.684009l3.8672641 6.469721c.2833629.47405.12878 1.088055-.3452706 1.371418s-1.0880555.12878-1.3714183-.345271l-3.9850699-6.666803c-.0048183-.008061-.0095101-.016162-.0140758-.024302zm8.6824101-29.488772h-2.0173763c-1.1937627-8.536526-7.3950798-15-14.7926135-15-8.2425571 0-15 8.024463-15 18s6.7574429 18 15 18c7.3975337 0 13.5988508-6.463474 14.7926135-15h2.0173763c-1.227139 9.598212-8.2522958 17-16.8099898 17-9.4305549 0-17-8.988716-17-20s7.5694451-20 17-20c8.557694 0 15.5828508 7.401788 16.8099898 17zm-8.0920951 0h-2.0407648c-.9052582-4.084072-3.6033703-7-6.6771299-7-3.7847664 0-7 4.420946-7 10s3.2152336 10 7 10c3.0737596 0 5.7718717-2.915928 6.6771299-7h2.0407648c-.9875466 5.145047-4.4608979 9-8.7178947 9-5.0517896 0-9-5.428789-9-12s3.9482104-12 9-12c4.2569968 0 7.7303481 3.854953 8.7178947 9zm-6.2749037 0h-.7491134c-.4751054 0-.9214843.136969-1.3090343.377383-.1675771-.266049-.3139021-.377383-.3848433-.377383-.0895041 0-.2990042.177222-.5197864.618786-.2993153.598631-.4802136 1.454014-.4802136 2.381214s.1808983 1.782583.4802136 2.381214c.2207822.441564.4302823.618786.5197864.618786.0709412 0 .2172662-.111334.3848433-.377383.38755.240414.8339289.377383 1.3090343.377383h.7491134c-.5132912 1.203028-1.3589867 2-2.442991 2-1.8452815 0-3-2.309437-3-5s1.1547185-5 3-5c1.0840043 0 1.9296998.796972 2.442991 2z" transform="translate(-34 -115)"/></svg>